<?xml version="1.0" encoding="utf-8"?>
<!-- Generator: Adobe Illustrator 16.0.3, SVG Export Plug-In . SVG Version: 6.00 Build 0)  -->
<!DOCTYPE svg PUBLIC "-//W3C//DTD SVG 1.0//EN" "http://www.w3.org/TR/2001/REC-SVG-20010904/DTD/svg10.dtd">
<svg version="1.0" id="Logo" xmlns="http://www.w3.org/2000/svg" xmlns:xlink="http://www.w3.org/1999/xlink" x="0px" y="0px"
	 width="270.7px" height="110.1px" viewBox="0 0 270.7 110.1" enable-background="new 0 0 270.7 110.1" xml:space="preserve">
<g>
	<g>
		<path fill="#004E7E" d="M17.2,109.7h-3.6l-2.8-11.2h0L8,109.7H4.3L0,93.3h3.6l2.6,11.2h0l2.9-11.2h3.4l2.8,11.3h0L18,93.3h3.5
			L17.2,109.7z"/>
		<path fill="#004E7E" d="M26.9,93.3h3.7l6.1,16.4H33l-1.2-3.7h-6.1l-1.3,3.7h-3.7L26.9,93.3z M26.5,103.3h4.3l-2.1-6h0L26.5,103.3z
			"/>
		<path fill="#004E7E" d="M40.5,104.2c0,2.2,1.7,3,3.6,3c1.3,0,3.2-0.4,3.2-2c0-1.8-2.5-2.1-4.9-2.7c-2.4-0.6-4.9-1.6-4.9-4.7
			c0-3.4,3.2-5,6.1-5c3.4,0,6.6,1.5,6.6,5.3h-3.5c-0.1-2-1.5-2.5-3.2-2.5c-1.1,0-2.5,0.5-2.5,1.9c0,1.3,0.8,1.4,4.9,2.5
			c1.2,0.3,4.9,1.1,4.9,4.8c0,3-2.4,5.3-6.8,5.3c-3.6,0-7-1.8-7-5.8H40.5z"/>
		<path fill="#004E7E" d="M55.6,104.2c0,2.2,1.7,3,3.6,3c1.3,0,3.2-0.4,3.2-2c0-1.8-2.5-2.1-4.9-2.7c-2.4-0.6-4.9-1.6-4.9-4.7
			c0-3.4,3.2-5,6.1-5c3.4,0,6.6,1.5,6.6,5.3h-3.5c-0.1-2-1.5-2.5-3.2-2.5c-1.1,0-2.5,0.5-2.5,1.9c0,1.3,0.8,1.4,4.9,2.5
			c1.2,0.3,4.9,1.1,4.9,4.8c0,3-2.4,5.3-6.8,5.3c-3.6,0-7-1.8-7-5.8H55.6z"/>
		<path fill="#004E7E" d="M68.3,93.3h12.3v3h-8.7v3.5h8v2.8h-8v4h8.9v3H68.3V93.3z"/>
		<path fill="#004E7E" d="M83.3,93.3h8.9c2.9,0,4.8,2,4.8,4.5c0,1.9-0.8,3.4-2.6,4.1v0c1.8,0.5,2.3,2.2,2.4,3.8c0.1,1,0,3,0.7,3.9
			h-3.6c-0.4-1-0.4-2.6-0.6-3.9c-0.3-1.7-0.9-2.5-2.7-2.5h-3.6v6.4h-3.6V93.3z M86.9,100.7h4c1.6,0,2.5-0.7,2.5-2.3
			c0-1.6-0.9-2.3-2.5-2.3h-4V100.7z"/>
		<path fill="#004E7E" d="M99.9,93.3h5.1l3.8,11.3h0l3.6-11.3h5.1v16.4h-3.4V98h0l-4,11.6h-2.8l-4-11.5h0v11.5h-3.4V93.3z"/>
		<path fill="#004E7E" d="M125.3,93.3h3.7l6.1,16.4h-3.7l-1.2-3.7h-6.1l-1.3,3.7h-3.7L125.3,93.3z M125,103.3h4.3l-2.1-6h0
			L125,103.3z"/>
		<path fill="#004E7E" d="M136.7,93.3h3.6l6.9,11h0v-11h3.4v16.4h-3.6l-6.8-11h0v11h-3.4V93.3z"/>
		<path fill="#004E7E" d="M153.8,93.3h3.6l6.9,11h0v-11h3.4v16.4H164l-6.8-11h0v11h-3.4V93.3z"/>
		<path fill="#004E7E" d="M189.1,107.8c-1.3,1.6-2.9,2.3-4.5,2.3c-5.1,0-8.1-3.8-8.1-8.5c0-4.9,3-8.7,8.1-8.7c3.4,0,6.5,2.1,6.9,5.8
			H188c-0.4-1.8-1.8-2.8-3.5-2.8c-3.2,0-4.5,2.8-4.5,5.6c0,2.7,1.2,5.5,4.5,5.5c2.3,0,3.7-1.3,3.9-3.5h-3.6v-2.7h6.9v8.9h-2.3
			L189.1,107.8z"/>
		<path fill="#004E7E" d="M194.7,93.3h8.9c2.9,0,4.8,2,4.8,4.5c0,1.9-0.8,3.4-2.6,4.1v0c1.8,0.5,2.3,2.2,2.4,3.8c0.1,1,0,3,0.7,3.9
			h-3.6c-0.4-1-0.4-2.6-0.6-3.9c-0.3-1.7-0.9-2.5-2.7-2.5h-3.6v6.4h-3.6V93.3z M198.3,100.7h4c1.6,0,2.5-0.7,2.5-2.3
			c0-1.6-0.9-2.3-2.5-2.3h-4V100.7z"/>
		<path fill="#004E7E" d="M225.1,103.5c0,4.4-2.6,6.6-7,6.6c-4.4,0-7-2.1-7-6.6V93.3h3.6v10.2c0,1.8,0.5,3.6,3.4,3.6
			c2.6,0,3.4-1.1,3.4-3.6V93.3h3.6V103.5z"/>
		<path fill="#004E7E" d="M228.2,93.3h7.4c4.1,0,5.7,2.6,5.7,5.3c0,2.7-1.6,5.3-5.7,5.3h-3.8v5.9h-3.6V93.3z M231.8,101h2.8
			c1.7,0,3.2-0.4,3.2-2.5s-1.5-2.5-3.2-2.5h-2.8V101z"/>
		<path fill="#004E7E" d="M243.2,93.3h7.4c4.1,0,5.7,2.6,5.7,5.3c0,2.7-1.6,5.3-5.7,5.3h-3.8v5.9h-3.6V93.3z M246.8,101h2.8
			c1.7,0,3.2-0.4,3.2-2.5s-1.5-2.5-3.2-2.5h-2.8V101z"/>
		<path fill="#004E7E" d="M258.2,93.3h12.3v3h-8.7v3.5h8v2.8h-8v4h8.9v3h-12.5V93.3z"/>
	</g>
	<g>
		<path fill="#004E7E" d="M129.8,82.4c1.9,0.3,3.7,0.4,5.7,0.4c1.9,0,3.8-0.1,5.7-0.4l-5.7-22.4L129.8,82.4z"/>
		<path fill="#004E7E" d="M135.5,0c-22.9,0-41.4,18.5-41.4,41.4c0,17.5,10.8,32.4,26.2,38.5L111.9,47h-3.1l6.4-11.1l6.4,11.1h-3.2
			l6.8,26.9l6.8-26.9H129l6.4-11.1l6.4,11.1h-3.1l6.8,26.9l6.8-26.9h-3.1l6.4-11.1l6.4,11.1h-3.2l-8.3,32.9
			c15.3-6.1,26.2-21,26.2-38.5C176.9,18.5,158.4,0,135.5,0z M157.3,71.5l1.8-7.3c5.7-5.9,9.2-13.9,9.2-22.8
			c0-18.1-14.7-32.8-32.8-32.8c-18.1,0-32.8,14.7-32.8,32.8c0,8.8,3.5,16.8,9.2,22.8l1.8,7.3c-9.3-6.8-15.3-17.7-15.3-30
			c0-20.5,16.6-37.1,37.1-37.1c20.5,0,37.1,16.6,37.1,37.1C172.6,53.8,166.6,64.7,157.3,71.5z"/>
	</g>
</g>
</svg>
